<?xml version="1.0" encoding="UTF-8"?><svg id="Layer_1" xmlns="http://www.w3.org/2000/svg" xmlns:xlink="http://www.w3.org/1999/xlink" viewBox="0 0 1376.56 357.34"><defs><style>.cls-1,.cls-2,.cls-3,.cls-4{fill:none;}.cls-2{clip-path:url(#clippath-2);}.cls-3{clip-path:url(#clippath-1);}.cls-5{fill:#fff;}.cls-6{fill:#85754e;}.cls-7{fill:#b09143;}.cls-8{fill:#231f20;}.cls-9{fill:#896a2f;}.cls-10{fill:url(#radial-gradient);}.cls-4{clip-path:url(#clippath);}</style><clipPath id="clippath"><rect class="cls-1" y="0" width="1376.56" height="357.33"/></clipPath><clipPath id="clippath-1"><rect class="cls-1" y="133.13" width="144.35" height="122.34"/></clipPath><radialGradient id="radial-gradient" cx="527.85" cy="260.3" fx="527.85" fy="260.3" r="7.07" gradientTransform="translate(-5318.01 2852.33) scale(10.21 -10.21)" gradientUnits="userSpaceOnUse"><stop offset="0" stop-color="#b09243"/><stop offset="1" stop-color="#896b2f"/></radialGradient><clipPath id="clippath-2"><rect class="cls-1" y="0" width="1376.56" height="357.33"/></clipPath></defs><g class="cls-4"><path class="cls-8" d="m1215.35,236.75c4.93-3.6,9.53-7.73,13.8-12.36l2.17-2.18c1.07-1.08,1.62-1.81,1.62-2.21s.39-.78,1.18-1.15c.49-.29,1.6-1.27,3.32-2.95,1.72-1.68,2.58-2.65,2.58-2.92s.38-.71,1.15-1.31c.77-.6,1.24-.9,1.43-.9s.66-.68,1.43-2.02c.77-1.34,1.4-2.02,1.9-2.02s.74-.14.74-.43c0-.54.52-1.24,1.56-2.11.37-.33.66-.49.87-.49.37,0,.56-.18.56-.53s2.67-3.34,8.02-8.98c1.07-1.16,1.61-1.81,1.61-1.96s.51-.64,1.53-1.49c1.01-.85,1.52-1.42,1.52-1.7,0-.3,1.03-1.51,3.07-3.64,2.05-2.13,3.3-3.63,3.76-4.5.45-.87.95-1.43,1.49-1.68.54-.25,1.08-.96,1.65-2.14.56-1.18,1.02-1.77,1.39-1.77.46-.12,1.18-.85,2.18-2.17,1.53-1.91,2.94-3.54,4.23-4.91,1.77-1.94,2.95-3.36,3.51-4.26s1.02-1.34,1.4-1.34.69-.34.96-1.02c.27-.68.86-1.48,1.77-2.39.9-.91,1.36-1.7,1.36-2.36,0-.58-.42-1.06-1.24-1.43-.33-.17-.64-.25-.93-.25-.58.08-1.63.99-3.17,2.73-1.61,1.95-3.27,3.85-4.97,5.72-2.2,2.36-3.29,3.65-3.29,3.88s-.54.88-1.61,1.96c-.58.54-3,3.25-7.27,8.14-.21.29-.37.56-.49.81-1.07,1.65-6.09,7.24-15.03,16.77-.25.29-.37.52-.37.68s-1.01,1.22-3.04,3.17c-2.04,1.94-3.05,3.1-3.05,3.48s-.52.93-1.56,1.68c-1.03.75-2.19,1.82-3.48,3.23-1.53,1.74-2.78,3.07-3.73,3.98-1.24,1.24-1.87,2.01-1.87,2.33s-.52.78-1.56,1.4c-.99.71-1.49,1.24-1.49,1.61s-.64,1.08-1.92,2.11c-.49.37-.87.56-1.12.56s-.52.33-.81,1c-.21.66-.71,1.27-1.52,1.8s-1.21,1.05-1.21,1.56c0,.16-.06.32-.19.47-.12.14-.25.21-.37.21-.42,0-1.43.81-3.05,2.42-3.94,3.81-6.13,5.72-6.59,5.72-.29,0-.92.47-1.89,1.39-.97.93-2.18,1.71-3.63,2.33-1.32.49-2.36.93-3.1,1.31-.13.08-.25.12-.37.12-.37,0-.71-.43-1-1.3-.25-.59-.37-1.02-.37-1.31,0-.25.08-.4.25-.43.37-.21.56-1.24.56-3.11,0-2.28.66-5.7,1.99-10.25,1.04-4.06,1.82-6.48,2.36-7.27.46-.62.69-1.18.69-1.68s.76-2.52,2.3-6.09c.62-1.45,1.22-2.71,1.8-3.79.66-1.53.99-2.4.99-2.61,0-.83.35-2.11,1.03-3.85.69-1.74,1.44-3.23,2.27-4.47,1.16-1.74,1.74-2.8,1.74-3.17s.48-1.2,1.43-2.49c.74-.87,2.32-3.56,4.71-8.07,2.11-4.23,3.29-6.43,3.54-6.59.25-.33.89-1.64,1.93-3.92.37-.91.64-1.63.81-2.17.25-.79.78-1.86,1.62-3.2.83-1.34,2.3-4.23,4.41-8.67,2.69-5.51,4.74-9.4,6.15-11.68,1.74-3.11,2.61-4.83,2.61-5.16l-.06-.18c0-.37.4-1.12,1.18-2.24,1.33-2.23,2.25-3.85,2.8-4.84,1.03-1.87,2.01-3.39,2.95-4.57.93-1.18,1.4-1.89,1.4-2.11s.95-2.02,2.86-5.37c1.91-3.36,3.09-5.26,3.54-5.72.71-1.07,1.37-2.25,1.99-3.54.75-1.58,1.64-3.29,2.67-5.15,3.81-7.25,6.65-12.34,8.51-15.29,1.45-2.36,2.67-3.82,3.67-4.38,1-.56,2.01-.84,3.05-.84,6.33.37,14.08.56,23.23.56,8.11,0,12.74-.1,13.88-.31,1.14-.2,4.21-.6,9.22-1.18,1.78-.2,3-.31,3.67-.31.16,0,1.1-.11,2.79-.34,1.7-.23,3.58-.42,5.65-.59,4.52-.29,10.98-2.11,19.42-5.47,8.43-3.36,14.09-6.6,16.99-9.75.12-.29.18-.58.18-.87,0-.78-.4-1.57-1.18-2.36-.49-.54-1-.81-1.49-.81-.58,0-1.16.4-1.74,1.18-1.16,1.53-4.5,3.48-10,5.84-2.53,1.08-3.96,1.82-4.29,2.24-.49.61-2.66,1.51-6.52,2.66-1.66.5-3.19.89-4.6,1.18-2.16.5-3.36.87-3.63,1.12-.27.25-2.16.56-5.68.93-10.93,1.53-21.37,2.51-31.31,2.93-2.9.16-4.88.25-5.97.25-1.65,0-2.7-.08-3.13-.25-.44-.17-3.18-.4-8.23-.69-.37,0-.73-.02-1.05-.06-3.56-.08-5.51-.25-5.85-.53-.33-.27-.49-.52-.49-.77,0-.58.45-1.49,1.36-2.74.5-.66,1.1-1.65,1.8-2.98.37-.71.56-1.15.56-1.34s.33-.62.97-1.31c.64-.68,1.49-1.99,2.54-3.94,1.05-1.94,2.04-3.46,2.95-4.53.61-.87,1.36-2.22,2.23-4.04.49-1.24,1.16-2.4,1.99-3.48.62-.62,1.06-1.43,1.31-2.42.25-.99.68-1.68,1.3-2.08.62-.4.93-.9.93-1.52s.33-1.6,1-2.92c.62-1.12.93-2.03.93-2.74-.08-.58-.59-1.27-1.49-2.05-1.2-1.12-2.24-2.32-3.11-3.6-.99-1.32-1.76-2.11-2.3-2.36-.74-.29-1.39-.43-1.92-.43-1.12,0-1.88.61-2.27,1.86-.4,1.24-1.27,2.84-2.64,4.79-1.53,2.45-2.74,4.54-3.63,6.3-.89,1.76-2.16,3.94-3.82,6.55-4.31,6.88-7.32,11.54-9.01,13.98-1.07,1.58-1.92,2.98-2.54,4.23-.71,1.61-1.56,3.1-2.58,4.44-1.02,1.34-1.87,2.02-2.58,2.02l-.68.06-7.21-.62c-3.65-.25-6.59-.58-8.82-.99-3.52-.66-10.79-1-21.81-1-10.02,0-16.88.25-20.56.75-10.27,1.45-16.28,2.81-18.02,4.1-.45.45-.95.68-1.49.68s-.91.19-1.12.57c-.08.37-.64.6-1.68.68-.87,0-1.87.33-2.98,1-4.31,2.74-7.8,5.39-10.47,7.95-2.67,2.57-4.01,4.53-4.01,5.9,0,1.07.43,1.61,1.3,1.61.29,0,.57-.09.81-.28.25-.19.66-.28,1.24-.28.25,0,.48.02.69.06,3.15-3.6,6.71-6.71,10.69-9.32,3.94-2.28,7.22-3.85,9.87-4.72,3.85-1.45,6.05-2.24,6.59-2.36,3.69-.54,5.74-1.02,6.15-1.43.29-.17.54-.25.75-.25.12,0,.23.02.34.06.11.04.38.06.84.06.41-.04.85-.13,1.3-.25,1.58-.37,5.88-.56,12.92-.56,14.87,0,22.94.35,24.23,1.05.49.25,2.38.48,5.65.69,7.29.33,11.63.68,13.05,1.05.61.17.93.42.93.75,0,.16-.64,1.41-1.92,3.72-.42.75-.75,1.39-1,1.92-.45.91-1.19,2.16-2.21,3.73-1.01,1.58-1.58,2.63-1.7,3.17-.33.91-.9,1.93-1.68,3.05-.91,1.41-1.9,3.15-2.98,5.22-1.2,2.45-2.69,5.07-4.47,7.89-4.6,7.5-7.79,13.03-9.57,16.59-1.58,3.32-2.63,5.3-3.17,5.97-.42.45-2.36,4.18-5.84,11.18-1.53,2.98-3.05,6-4.54,9.07-2.07,4.39-5.84,11.61-11.31,21.68l-1.68,3.17c-5.59,9.69-10.89,22.01-15.9,36.96-1.49,4.52-2.23,8.74-2.23,12.67,0,3.6.68,6.33,2.05,8.2.25.33.56.91.93,1.74.54,1.66,1.64,2.96,3.32,3.92,1.68.95,3.41,1.43,5.19,1.43,2.57,0,6.62-2.01,12.17-6.02m-73.52-22.87c.54-.25,1.18-.56,1.92-.93.75-.37,1.41-.68,1.99-.93,1.24-.62,2.03-1.1,2.36-1.43.17-.25,1.12-.83,2.86-1.74,2.81-1.45,5.36-3.29,7.64-5.53,1.12-1.12,1.8-1.68,2.05-1.68s1.59-1.18,4.04-3.54,3.75-3.54,3.92-3.54.95-.71,2.36-2.11c3.64-3.65,6.46-6.62,8.45-8.95,1.32-1.53,2.81-3.17,4.47-4.91,1.78-1.99,2.67-3.12,2.67-3.39s.57-.94,1.7-2.02c1.15-1.07,2.37-2.5,3.7-4.28,1.33-1.78,2.26-3.23,2.8-4.35.37-.83.95-1.49,1.74-1.99.78-.41,1.18-.81,1.18-1.21s.41-1.05,1.24-1.96c.83-.91,1.24-1.82,1.24-2.74,0-.99-.52-1.48-1.56-1.48s-2.59,1.41-4.54,4.22c-1.24,1.74-2.3,3.11-3.17,4.1-1.58,1.58-2.36,2.61-2.36,3.11,0,.2-.71,1.12-2.11,2.73-.99,1-2.54,2.8-4.66,5.41-1.29,1.62-2.83,3.44-4.66,5.47-4.76,5.17-7.39,7.76-7.89,7.76-.29,0-.44.19-.44.56s-2.3,2.67-6.9,6.9c-.87.78-1.46,1.18-1.77,1.18s-.47.25-.47.74-.18.75-.53.75-1,.47-1.96,1.43c-.95.95-1.82,1.68-2.61,2.18-.41.2-1.05.59-1.92,1.18-2.28,1.61-3.83,2.77-4.66,3.48-.37.37-1.55.97-3.54,1.8-1.82.78-3.13,1.36-3.92,1.74-.33.16-.62.25-.87.25-.83,0-1.24-.91-1.24-2.74,0-.45-.04-.87-.12-1.24-.08-.37-.2-.59-.35-.65-.14-.06-.21-.28-.21-.65,0-.5.37-2.4,1.12-5.72.29-1.24,1.05-3.1,2.3-5.59,1.12-2.28,2.23-4.97,3.36-8.07.87-2.49,2.46-6.32,4.78-11.49,2.2-4.98,3.48-7.91,3.85-8.82.5-1.2.98-2.07,1.43-2.62.54-.78,1-1.88,1.37-3.29.29-1.24.99-3.17,2.11-5.78.41-.87,1.39-3.06,2.92-6.58.95-2.16,1.76-3.73,2.42-4.72,1.82-2.82,2.74-5.9,2.74-9.26,0-2.28-.45-4.45-1.36-6.52-1.2-2.86-3.46-4.28-6.77-4.28-1.82,0-4.23.89-7.21,2.67-.62.41-1.8,1.12-3.54,2.11-1.45.83-3.27,2.09-5.46,3.8-.83.66-1.68,1.3-2.55,1.92-2.23,1.7-4.76,3.85-7.58,6.46-7.12,6.67-11.72,11.22-13.79,13.67-.42.54-1,1.2-1.74,1.99-2.94,3.19-4.56,5.14-4.85,5.84-.21.71-.54,1.06-1.02,1.06s-.71.12-.71.37c-.12.37-.76,1.17-1.92,2.4s-3.15,3.65-5.97,7.29c-.62.83-2.57,2.98-5.84,6.46-1.66,1.91-2.57,3-2.74,3.27-.16.27-.58.78-1.24,1.52-3.39,3.81-5.09,5.79-5.09,5.94s-.21.38-.62.71c-1.41,1.12-2.36,1.68-2.86,1.68-.33,0-.5-.25-.5-.75,0-1.03.93-3.31,2.8-6.83.45-.87,1.05-2.09,1.8-3.67,1.94-4.1,2.92-6.35,2.92-6.74s.27-.86.81-1.4c1.24-1.45,3.81-5.41,7.7-11.87,1.53-2.45,2.98-4.52,4.35-6.21,1.74-2.07,2.61-3.48,2.61-4.22,0-.42-.16-.79-.49-1.12-.71-.83-1.12-2.48-1.24-4.97-.08-.41-.3-.62-.65-.62s-.9-.41-1.65-1.24c-.49-.66-1.1-1-1.8-1-3.32,0-9.09,6.89-17.33,20.69-2.65,4.43-3.98,6.83-3.98,7.2s-.97,2.51-2.92,6.4c-2.77,5.72-4.16,10.86-4.16,15.41s1.06,7.85,3.17,9.38c.66.46,1.39.69,2.17.69,1.82,0,4-1.18,6.52-3.54,1.2-1.2,1.98-1.8,2.33-1.8s2.04-1.65,5.06-4.94c3.03-3.29,4.54-5.15,4.54-5.56s.35-.66,1.05-.75c.66-.2,1.16-.71,1.49-1.52.33-.81,1-1.6,2.02-2.39,1.01-.79,1.52-1.39,1.52-1.8.12-.5.9-1.53,2.33-3.11,1.43-1.57,3.02-3.44,4.78-5.59,1.76-2.15,2.76-3.23,3.02-3.23s.52-.33.81-.99c.54-1,3.95-4.79,10.25-11.37,6.71-6.91,11-11.14,12.86-12.67,1.16-.91,2.49-2.03,3.98-3.35,1.99-1.7,3.76-3.13,5.31-4.29,1.56-1.16,2.49-1.74,2.8-1.74s.52-.14.65-.43c.13-.29.62-.73,1.49-1.31,2.36-1.58,3.98-2.36,4.85-2.36.61,0,.93.25.93.74,0,.75-1.01,3.23-3.04,7.46-5.14,10.81-8.04,17.21-8.7,19.2-.37,1.12-1.03,2.63-1.99,4.54-1.07,2.19-3.4,7.35-6.95,15.47-2.94,6.46-5.01,11.25-6.21,14.35-1.74,4.52-2.61,9.32-2.61,14.41,0,.58.01,1.02.06,1.31.25.95.48,2.18.69,3.66.49,2.62,2.36,4.45,5.59,5.53,1.45.49,2.88.74,4.29.74,1.77,0,3.53-.4,5.28-1.18m-140.13-61.44c0-.54.49-1.49,1.49-2.86,1.74-2.45,4.57-5.65,8.51-9.63,3.27-3.35,5.86-5.73,7.77-7.15,1.9-1.41,4.62-2.98,8.14-4.72,1.03-.45,1.99-.68,2.86-.68,1.99.12,2.98.91,2.98,2.36,0,.62-.33,1.3-.99,2.05-.33.33-1,1.27-1.99,2.79-.99,1.53-2.88,3.63-5.65,6.28-1.12,1.07-2.49,2.2-4.11,3.36-.49.37-.93.72-1.3,1.05-.95.75-1.6,1.12-1.96,1.12s-.57.15-.65.44c-.29.45-1.99,1.41-5.1,2.86-4.47,2.11-7.64,3.17-9.51,3.17-.33,0-.49-.14-.49-.43m15.59,45.72c5.55-1.87,9.78-4.04,12.67-6.52.74-.75,1.36-1.12,1.83-1.12s2.71-1.39,6.68-4.16c3.72-2.62,5.74-4.18,6.03-4.72.29-.54.99-1.05,2.11-1.53,1.12-.47,1.68-.88,1.68-1.21s.67-.94,2.01-1.83c1.35-.89,2.02-1.55,2.02-1.96s.37-.78,1.12-1.12c1-.33,5.88-5.1,14.66-14.29,1.2-1.24,1.82-2.1,1.84-2.58.02-.47.03-.74.03-.77,0-.83-.52-1.27-1.56-1.31-.87.08-2.5,1.34-4.91,3.79-.87.91-1.3,1.51-1.3,1.8s-.5.83-1.49,1.61c-2.07,1.58-3.73,3.07-4.98,4.47-.58.71-.87,1.16-.87,1.37,0,.37-.25.64-.77.81-.52.16-1.96,1.29-4.32,3.36-1.99,1.86-4.52,3.93-7.58,6.21-2.69,1.95-4.26,3.22-4.72,3.8-.29.45-.96.9-2.01,1.36-1.06.45-2.04,1.07-2.95,1.87-.91.78-2.01,1.52-3.32,2.21-1.3.68-2.04,1.12-2.21,1.34-.37.37-1.65,1.01-3.85,1.92-.83.37-1.34.56-1.56.56s-.68.33-1.43,1c-.62.7-1.19,1.05-1.7,1.05s-1.98.44-4.38,1.31c-3.77,1.41-6.44,2.17-8.02,2.3-1.07.08-2.57.12-4.47.12-2.28,0-3.97-.27-5.09-.81-3.4-2.15-5.16-5.57-5.28-10.25-.25-.95-.37-1.96-.37-3.05,0-1.61.11-3.1.31-4.47.04-1.99.6-4.95,1.68-8.88,1.36-4.76,2.61-7.99,3.73-9.66,1.12-1.68,2.22-2.52,3.29-2.52.33,0,.66.06,1,.18l.37.06c.29,0,.52-.1.68-.31.33-.33.93-.49,1.77-.49s1.46-.18,1.83-.56c.08-.2.29-.31.62-.31.16,0,.31.02.44.06.12.04.27.06.43.06.45,0,.93-.18,1.43-.53.5-.35,1.41-.69,2.74-1.02,1.03-.17,1.65-.42,1.87-.75.21-.33,1.24-.93,3.1-1.8,1.87-.99,2.8-1.62,2.8-1.89s.58-.66,1.74-1.18c1.16-.52,2.11-1.19,2.86-2.01.74-.83,1.27-1.24,1.58-1.24s1.89-1.44,4.72-4.32c2.83-2.88,4.25-4.48,4.25-4.81s.54-1.29,1.62-2.86c.9-1.62,1.36-3.17,1.36-4.67,0-1.65-.54-3.21-1.62-4.66-.91-1.12-1.36-1.8-1.36-2.05s-.2-.41-.62-.49c-.49,0-1.12-.33-1.86-1-.79-.54-2.11-.81-3.98-.81s-3.54.27-4.91.81c-1.62.58-3.07,1.08-4.35,1.49-2.86,1-6.19,2.78-10,5.38-3.81,2.59-6.96,5.2-9.44,7.85-5.42,5.72-8.34,8.82-8.76,9.32-1.28,1.7-3.62,6-7.02,12.92-2.36,5.01-3.68,9.1-3.94,12.27-.27,3.17-.4,5.53-.4,7.11,0,5.46.85,10.19,2.54,14.16.87,1.99,1.71,3.48,2.52,4.5.81,1.02,1.36,1.52,1.68,1.52s.47.24.47.72.44.81,1.31,1.02c.95.33,1.89.81,2.79,1.43,1.46.91,3.67,1.36,6.65,1.36,5.8,0,12.65-1.33,20.56-3.97m-71.73-87.72c-.08,0-.12-.06-.12-.18,0-.29.23-.89.68-1.8.29-.62.64-1.22,1.06-1.8.83-.99,1.24-1.68,1.24-2.08s.13-.65.37-.78c.25-.13,1.87-2.36,4.85-6.71,7.99-11.72,14.31-20.02,18.94-24.92,1.12-1.12,1.68-1.85,1.68-2.21s1.18-1.79,3.54-4.32c2.36-2.52,6.04-6.23,11.05-11.12,2.4-2.44,4.66-4.64,6.77-6.58,1-.87,2.28-2.05,3.85-3.54,5.75-5.47,9.55-8.84,11.37-10.13,1.29-.83,2.34-1.24,3.17-1.24,1.45.13,2.17,1.02,2.17,2.67s-.93,4.52-2.79,8.82c-.75,1.99-1.35,3.36-1.8,4.1-.42.42-.95,1.43-1.62,3.05-.78,1.53-1.55,2.74-2.3,3.6-.74.87-1.45,1.94-2.11,3.23-.66,1.28-1.23,2.01-1.7,2.21-.48.18-.71.51-.71.96s-.48,1.16-1.43,2.11c-1.12,1.24-2.01,2.34-2.66,3.29-1.95,2.65-5.09,6.21-9.41,10.68-4.33,4.47-8.4,8.37-12.21,11.68-3.15,2.65-4.72,4.12-4.72,4.41s-.29.43-.87.43-1.19.35-1.83,1.02c-.64.69-1.11,1.02-1.4,1.02s-.78.42-1.49,1.27c-.71.86-1.27,1.28-1.71,1.28s-.83.2-1.21.62c-.37.41-1.33,1.05-2.86,1.92-1.53.74-2.3,1.27-2.3,1.56s-.18.43-.56.43-1.05.44-2.05,1.31c-1.12.83-1.94,1.24-2.48,1.24s-1.24.39-2.09,1.18c-.85.78-2.57,1.72-5.19,2.79l-.99.49h-.13Zm-42.06,131.39c.71-.7,1.27-1.05,1.71-1.05s.65-.26.65-.78.18-.78.56-.78,2.38-1.89,6.03-5.65c4.35-4.51,7.24-7.73,8.69-9.63.71-.95,1.47-1.92,2.3-2.92.66-.58,4.06-4.81,10.19-12.67.58-.75,1.47-1.82,2.67-3.23,2.28-2.74,3.77-4.62,4.47-5.65,2.45-3.56,3.82-5.34,4.13-5.34s.54-.29.71-.87c.16-.58.76-1.51,1.8-2.79.99-1.08,1.49-1.82,1.49-2.21s.25-.69.74-.9c.5-.2.75-.56.75-1.05s.16-.75.47-.75.86-.64,1.65-1.92c.95-1.53,1.8-2.71,2.54-3.54.95-1.16,1.43-1.96,1.43-2.42s.42-1.01,1.24-1.68c.91-.91,1.61-1.91,2.11-2.98.74-1.29,1.49-2.34,2.23-3.17.87-.95,1.8-2.3,2.8-4.04.83-1.53,1.77-2.95,2.86-4.28,1.74-2.16,2.61-3.79,2.61-4.91,0-.29-.06-.54-.18-.75-.46-.49-.95-.74-1.49-.74-.87,0-1.84.76-2.92,2.3-2.45,3.89-3.82,5.84-4.1,5.84-.3,0-.83.78-1.62,2.36s-1.63,2.93-2.52,4.07-1.79,2.28-2.7,3.41-1.37,1.85-1.37,2.14-.6,1.12-1.8,2.49c-.95,1.2-1.43,1.92-1.43,2.18,0,.04.02.06.06.06s.06.02.06.06c0,.08-.18.25-.56.49-.58.3-.87.77-.87,1.43s-.35,1.1-1.06,1.3c-.62.29-1.17.98-1.65,2.05-.47,1.08-1.03,1.87-1.68,2.36-.64.5-1.15,1.14-1.52,1.93-.62,1.12-1.6,2.47-2.95,4.06-1.34,1.6-2.64,3.24-3.88,4.94-1.49,2.03-2.45,3.21-2.86,3.54-.42.49-.62.84-.62,1.02s-.82,1.2-2.45,3.05c-1.64,1.84-2.62,3.17-2.95,4.01-.21.78-.55,1.18-1.02,1.18s-.82.29-1.02.87c-.41.83-1.1,1.72-2.05,2.67-1.12,1.19-1.68,1.95-1.68,2.26s-.49.97-1.49,1.96c-4.39,4.6-6.59,7.05-6.59,7.37s-1.48,1.94-4.44,4.91c-2.96,2.96-4.93,4.79-5.9,5.5-.98.7-1.73,1.32-2.27,1.87-.54.54-1.39,1.07-2.54,1.61-.5.25-.85.37-1.06.37-1.49,0-2.23-3.71-2.23-11.12,0-5.05.52-9.12,1.56-12.18.2-.62.56-2.16,1.05-4.59.87-4.23,1.43-6.62,1.68-7.18.25-.56.46-.94.62-1.15.46-.46.79-1.43,1-2.92.29-1.49.69-2.76,1.18-3.79.49-1.04.74-1.75.74-2.15s.93-2.68,2.8-6.86c.45-1.03.98-2.4,1.56-4.1.83-2.48,2.59-6.75,5.28-12.79.95-2.16,1.63-3.51,2.05-4.04.62-.83,1.01-1.84,1.18-3.04.33-1.45.75-2.59,1.27-3.42.52-.83.95-1.83,1.3-3.01.35-1.18.71-2.29,1.09-3.32,1.49-3.44,2.4-5.28,2.74-5.53.33-.46,1.53-2.76,3.6-6.9.45-.83.86-1.6,1.21-2.33.35-.72.61-1.21.78-1.46.25-.42.63-1.16,1.15-2.24.52-1.07,1.51-2.67,2.98-4.78,1.47-2.11,2.95-4.62,4.45-7.52,1.32-2.81,2.58-4.81,3.76-5.97s3.1-2.34,5.75-3.54c3.52-1.65,5.87-2.81,7.08-3.48,3.89-2.03,6-3.27,6.33-3.72.25-.33,1.22-1,2.92-1.99,1.7-.91,2.54-1.51,2.54-1.8s.17-.44.5-.44c.62,0,1.92-.74,3.91-2.23.75-.58,1.27-1.06,1.56-1.43.49-.58.98-.87,1.43-.87s1.87-1.1,4.23-3.29c4.97-4.23,9.25-8.08,12.83-11.56,3.58-3.48,5.89-5.97,6.93-7.46.54-.78,1.14-1.49,1.8-2.11.66-.62,1.12-.93,1.4-.93s.4-.22.4-.66.5-1.16,1.52-2.17c1.02-1.02,1.52-1.7,1.52-2.05s.42-.88,1.24-1.58c.83-.71,2.86-3.44,6.09-8.21,1.29-1.86,2.3-3.44,3.05-4.72,3.89-6.91,6.1-11.84,6.62-14.78s.78-4.91.78-5.9c0-2.98-.91-5.16-2.74-6.52-1.36-1-3.12-1.49-5.28-1.49-4.59,0-8.96,1.65-13.1,4.97-.83.71-1.63,1.29-2.4,1.77-.76.47-2.06,1.46-3.88,2.95-.71.62-1.67,1.42-2.89,2.39-1.22.98-2.39,1.92-3.51,2.83-7.62,5.88-15.28,13.2-22.99,21.93-1.99,2.28-5.22,6.35-9.69,12.24-1.16,1.66-3.03,4.1-5.59,7.33-3.19,3.77-8.33,11.35-15.41,22.74-2.28,3.36-4.04,6.09-5.28,8.2-1.78,2.98-3.2,5.29-4.25,6.93-1.06,1.64-3.22,5.58-6.5,11.84-2.9,5.71-4.72,9.17-5.46,10.37-1,1.75-2.68,5.32-5.06,10.72-2.38,5.4-3.58,8.43-3.58,9.1,0,.17-.66,1.72-1.99,4.66-1.24,2.57-2.18,4.79-2.79,6.65-.75,1.99-1.27,3.27-1.55,3.85-.49.91-1.53,3.48-3.11,7.7-1.07,2.98-2.23,5.98-3.48,9-.78,1.78-1.52,4.09-2.21,6.93-.69,2.83-1.67,7.63-2.95,14.38-1.2,5.92-1.8,10.64-1.8,14.16,0,4.47,1.32,7.99,3.97,10.56,1.12,1.36,1.78,2.28,1.99,2.73,1.2,1.82,3.23,2.74,6.09,2.74h.56c3.19-.12,5.84-1.22,7.95-3.29m-88.01-7.89c1.78-.83,2.82-1.24,3.11-1.24s.84-.42,1.65-1.27c.81-.85,1.39-1.27,1.74-1.27s1.38-.78,3.07-2.33c1.7-1.55,2.91-2.46,3.63-2.73.73-.28,1.31-.84,1.77-1.71.45-.87.83-1.31,1.15-1.31s2.13-1.6,5.47-4.81c3.33-3.21,5-4.99,5-5.34s.24-.52.71-.52,1.02-.46,1.65-1.37c.78-1.12,2.2-2.69,4.23-4.72,6.42-6.42,9.63-9.96,9.63-10.62s.6-1.49,1.8-2.48c.45-.37.81-.56,1.05-.56.46,0,.69-.19.69-.56s.67-1.38,2.02-3.02c1.34-1.63,2.01-2.52,2.01-2.64,0-.13.58-.82,1.74-2.09,1.16-1.26,1.93-2.18,2.3-2.76.66-.99,1.55-2.09,2.67-3.29,1.19-1.36,1.84-2.28,1.92-2.73,0-.42.13-.62.4-.62s1.63-1.7,4.07-5.1c1.94-2.36,3.72-4.93,5.34-7.7.87-1.53,1.56-2.4,2.08-2.61.52-.2.78-.74.78-1.61,0-1.08-.35-1.82-1.05-2.24-.08-.04-.19-.06-.31-.06-.37,0-.81.17-1.31.5-.71.41-1.36.95-1.96,1.61-.6.66-.91,1.22-.93,1.65-.02.44-.8,1.53-2.33,3.29-1.53,1.76-2.55,3.15-3.05,4.16-.49,1.01-.91,1.52-1.24,1.52s-.49.2-.49.59-.81,1.51-2.42,3.35c-1.61,1.84-2.57,3.17-2.86,3.98-.29.81-.65,1.21-1.09,1.21s-.76.31-.96.93-.81,1.45-1.8,2.49c-1,1.03-1.49,1.68-1.49,1.95s-.93,1.41-2.79,3.42c-1.87,2.01-2.82,3.14-2.86,3.39-.04.25-1.05,1.41-3.04,3.48-1.99,2.07-2.98,3.25-2.98,3.54s-1.99,2.47-5.97,6.52c-3.56,3.64-6.06,6.26-7.51,7.82-4.6,4.72-9.66,9.32-15.16,13.79-1.62,1.37-2.61,2.24-2.98,2.62-.83.83-2.54,1.82-5.15,2.98-1.04.5-1.7.75-1.99.75-.08,0-.12-.31-.12-.93.37-3.68.85-5.72,1.43-6.09.33-.13.49-.48.49-1.06,0-1.12.84-3.85,2.52-8.2,1.68-4.35,2.69-6.52,3.01-6.52s.5-.23.5-.68.49-1.78,1.49-3.98c.45-.91.93-1.94,1.43-3.1,1.99-4.85,3.87-9.17,5.65-12.98,1.65-3.56,2.9-5.97,3.72-7.21.62-.95.93-1.61.93-1.99s.81-1.94,2.42-4.72c1.41-2.19,2.83-4.66,4.26-7.39,1.43-2.74,2.54-4.64,3.32-5.71,1.65-2.16,2.88-4.61,3.66-7.37.79-2.76,1.18-4.86,1.18-6.3,0-.83-.1-1.53-.31-2.11-1.65-3.48-3.44-5.84-5.34-7.08-1.08-.74-1.91-1.12-2.49-1.12-.62,0-.98.46-1.05,1.36-.21.95-1.46,2.64-3.76,5.07-2.3,2.42-3.45,3.84-3.45,4.26s-.51.98-1.52,1.7c-1.02.73-1.53,1.39-1.53,1.99s-.42,1.2-1.27,1.8c-.85.6-1.27,1.23-1.27,1.89s-.12.99-.37.99c-.33.13-1.72,1.74-4.16,4.85-3.44,4.35-6.23,7.64-8.39,9.87-.83.91-1.24,1.55-1.24,1.89s-.52.9-1.56,1.65c-.87.62-1.63,1.47-2.3,2.55-.49.99-.96,1.48-1.39,1.48s-1.01.5-1.71,1.49c-.58,1.04-1,1.56-1.24,1.56s-1.34,1.02-3.29,3.05c-.45.62-1.51,1.63-3.17,3.04-1.87,1.58-3.36,2.91-4.47,3.98-5.1,4.64-9.24,7.48-12.43,8.51-1.82.49-2.86.91-3.1,1.24-.49.41-1.18.62-2.05.62-1.41,0-2.88-.4-4.41-1.18-1.24-.62-2.13-1.37-2.67-2.24-.78-1.24-1.18-2.32-1.18-3.23,0-1.36.98-4.47,2.92-9.32,2.2-4.18,3.72-7.02,4.59-8.51,1.16-1.91,3.65-5.48,7.46-10.75,1.45-2.03,3.03-3.85,4.72-5.46,3.39-3.48,5.1-6.21,5.1-8.2,0-.25-.04-.5-.13-.75-.33-.99-.49-1.88-.49-2.67,0-1.12-.79-2.67-2.36-4.66-1.74-1.03-2.88-1.56-3.42-1.56-.78,0-2.19,1.06-4.22,3.17-3.73,3.48-7.35,7.87-10.87,13.17-2.07,2.45-4.54,6.5-7.39,12.18-2.74,5.34-4.27,8.61-4.6,9.81-.28,1.33-.61,2.65-.99,3.98-.17.7-.25,1.9-.25,3.6.04.33.06.76.06,1.3-.04.37-.16.6-.34.69-.18.08-.28.23-.28.43,0,.33.23.85.68,1.56.66,1.2,1.08,2.2,1.24,2.98.17.58.69,1.41,1.55,2.48,2.03,2.74,3.73,4.5,5.09,5.29,1.95.95,4.54,1.43,7.77,1.43s6.17-.42,8.95-1.24c2.77-.83,4.62-1.93,5.53-3.29.29-.49.69-.74,1.18-.74s1.51-.77,3.05-2.3c1.16-1.12,2.19-2.03,3.1-2.73,1.9-1.12,6.5-5.43,13.79-12.92,2.94-2.98,5.22-5.43,6.83-7.34,2.2-2.64,3.89-4.57,5.1-5.77.91-.91,1.78-2.04,2.61-3.39.83-1.34,1.4-2.02,1.71-2.02s.69-.47,1.15-1.43c.46-.95,1.07-1.82,1.87-2.61.83-.95,1.56-1.84,2.17-2.67.62-.83,1-1.24,1.12-1.24.04,0,.06.04.06.13,0,1-.97,3.03-2.92,6.09-1.82,2.82-5.59,10.42-11.3,22.8-4.6,9.65-8.76,18.78-12.49,27.4-1.65,3.64-2.48,7.06-2.48,10.25,0,1.74.25,3.42.74,5.03,1.7,6.17,4.23,9.26,7.58,9.26,1.24,0,2.61-.44,4.1-1.31m-161.18-30.94c-1.24-.78-2.34-1.41-3.29-1.87-.95-.45-1.83-1.2-2.64-2.23-.81-1.04-1.46-1.56-1.96-1.56s-.74-.23-.74-.71-.44-1.48-1.31-3.01c-.71-1.2-1.05-2.09-1.05-2.67,0-.29.41-.44,1.24-.44,1.08,0,2.42.1,4.04.28,1.61.18,3.14.42,4.57.69,1.43.27,2.41.54,2.95.83s2.28.53,5.22.71c2.94.19,6.42.3,10.44.35h1.99c2.86,0,4.29.23,4.29.68s-.66,1.29-1.99,2.49c-5.3,5.22-10.79,7.82-16.46,7.82-1.99,0-3.75-.45-5.28-1.36m-118.41,141.46c.17-.37.5-.56,1-.56.33,0,.76.04,1.31.12l.68.06c1.29,0,2.55-.4,3.79-1.18,1.46-.91,2.18-1.92,2.18-3.05,0-.54.29-1.15.87-1.83s1.29-2.12,2.14-4.32c.85-2.19,1.63-4.57,2.33-7.14.71-2.24,1.61-4.44,2.74-6.59,1.2-2.4,2.21-4.74,3.04-7.02.66-2.03,1.22-3.44,1.68-4.23.45-.78,1.3-2.72,2.54-5.81,1.24-3.08,1.87-4.8,1.87-5.15s.21-.61.65-.78c.43-.17.98-1.24,1.65-3.23.49-1.58,1.28-3.52,2.36-5.84.95-1.91,1.43-3,1.43-3.29s.38-1.15,1.15-2.58c.77-1.43,1.28-2.14,1.53-2.14s.37-.37.37-1.12c0-1,1.55-4.41,4.66-10.25,1.12-2.08,1.94-3.42,2.48-4.04.29-.37.44-.74.44-1.09s.43-1.36,1.3-3.01c.33-.66.66-1.27,1-1.8.49-.83,1.27-2.42,2.3-4.78,2.32-5.72,5.88-12.64,10.69-20.75,3.44-5.8,6.77-10.89,10-15.28,0-.49,1.05-2.05,3.17-4.66.71-.87,1.15-1.38,1.34-1.53.19-.14.65-.9,1.4-2.26.58-1.24,1.11-1.87,1.58-1.87s.91-.51,1.31-1.52c.39-1.02.74-1.53,1.02-1.53s.52-.25.71-.74c.18-.5.65-1.18,1.39-2.05,3.23-3.69,4.85-5.63,4.85-5.84s1.07-1.49,3.23-3.85c1.9-1.99,3.41-3.67,4.54-5.03,2.32-2.69,6.46-7.1,12.42-13.23,5.72-5.85,8.76-8.76,9.13-8.76.21,0,.69-.5,1.46-1.52.76-1.01,1.34-1.52,1.71-1.52.21,0,1.36-.88,3.48-2.64,2.11-1.76,4.59-3.94,7.46-6.55,1.19-1,1.94-1.49,2.23-1.49s.64-.2,1.05-.62c.91-.78,2.51-1.92,4.79-3.41,2.65-1.7,4.04-2.55,4.16-2.55.37,0,1-.41,1.87-1.24.87-.83,1.55-1.24,2.05-1.24s.74-.18.74-.53.47-.65,1.43-.9c.95-.25,1.76-.68,2.42-1.28.66-.59,1.2-.9,1.62-.9s.62-.16.62-.49.34-.5,1.02-.5,1.52-.25,2.51-.74c.54-.33,1-.49,1.37-.49.08,0,.12.02.12.06,0,.04.02.06.06.06.08,0,.29-.18.62-.56,1.49-.62,3.05-.95,4.66-1,1.41.46,2.45,1.64,3.11,3.54.66,1.91.99,3.69.99,5.34,0,1.08-.1,2.22-.31,3.42-.61,2.86-1.14,5.46-1.55,7.82-.42,1.99-.83,3.46-1.24,4.41-.49.91-.75,1.69-.75,2.33s-.14,1.11-.43,1.4c-.33.45-.69,1.22-1.05,2.3-.79,2.03-2.24,5.03-4.35,9-.91,1.7-2.09,3.6-3.54,5.72-1.61,2.81-2.96,4.83-4.04,6.06-1.07,1.22-2.42,1.99-4.04,2.33-2.11.42-6.11.62-11.99.62-3.48,0-6.06-.14-7.76-.43-8.53-1.45-14.02-2.18-16.46-2.18s-3.75.56-4.29,1.68c-.25.5-.37,1.1-.37,1.8,0,.95.23,2.09.68,3.42.75,2.32,1.81,4.47,3.2,6.46,1.39,1.99,2.66,2.98,3.82,2.98.29,0,.48.14.56.43.33.54,1.53,1.49,3.6,2.86.78.54,1.31.81,1.56.81.49,0,.85.14,1.05.43.13.37,4.35,1.2,12.67,2.49,1,.12,1.87.18,2.61.18s1.34-.06,1.77-.18c.43-.13.86-.21,1.27-.25.42-.04.73-.06.93-.06.37,0,.71.02,1,.06.29.04.56.06.81.06.91,0,1.87-.33,2.86-.99,1.16-.75,2.28-1.27,3.36-1.56,2.36-.58,5.17-2.38,8.42-5.41,3.25-3.02,6.2-6.56,8.85-10.62,1.04-1.61,3.77-2.98,8.2-4.1,3.89-.95,5.84-1.74,5.84-2.36,0-.37.31-.56.93-.56.87,0,2.47-.54,4.79-1.61.87-.42,1.5-.79,1.89-1.12.4-.33,1.38-.87,2.95-1.61,1.28-.49,2.8-1.25,4.57-2.27,1.76-1.01,3.07-1.87,3.94-2.58.87-.58,2.1-1.25,3.7-2.01,1.59-.77,2.39-1.23,2.39-1.4-.16,0-.25-.04-.25-.13,0-.16.14-.39.43-.68.5-.5.95-.75,1.34-.75s1.42-.78,3.07-2.36c1.53-1.45,2.95-2.59,4.26-3.44,1.31-.85,1.96-1.44,1.96-1.77s.23-.49.69-.49,1.45-1,2.98-2.98c.54-.66.83-1.16.87-1.49-.08-1.33-.81-1.99-2.18-1.99-1.28,0-2.17.66-2.67,1.99-.2.66-.66,1.18-1.36,1.56-.71.37-1.46,1.03-2.27,1.99s-1.4,1.43-1.77,1.43-.91.4-1.62,1.18c-.87.87-1.61,1.39-2.23,1.56-.75.33-1.12.62-1.12.87s-1.82,1.56-5.44,3.94c-3.63,2.38-5.65,3.57-6.06,3.57-.21,0-.79.31-1.74.93-.83.71-1.87,1.24-3.11,1.62-1.24.49-1.87.86-1.87,1.08s-.67.64-2.01,1.24c-1.35.6-2.87,1.17-4.57,1.71-1.53.49-2.76,1.05-3.67,1.68-.74.46-1.2.69-1.36.69-.04,0-.06-.02-.06-.06s-.02-.06-.06-.06c-.29,0-.85.19-1.68.56-.83.37-1.43.57-1.8.57-.42,0-.62-.19-.62-.57,0-.2,1.39-3.41,4.16-9.63,1.78-3.97,3.21-8.56,4.29-13.76,1.07-5.2,1.61-9.29,1.61-12.26,0-1.53-.25-3.15-.74-4.85-.91-2.9-1.6-4.35-2.05-4.35-.21,0-.57-.54-1.06-1.62-.91-1.94-1.72-2.92-2.42-2.92-.25,0-.74-.41-1.46-1.24-.73-.83-1.92-1.34-3.58-1.55-1.65-.21-3.33-.42-5.03-.62-.83,0-1.32.12-1.48.37-.17.25-.93.48-2.27.69-1.35.21-2.02.47-2.02.78s-.71.65-2.11,1.02c-2.03.71-5.09,2.16-9.19,4.35-1.66.87-2.58,1.43-2.77,1.68-.18.25-.74.61-1.65,1.12-1.24.66-3.12,1.83-5.65,3.51-2.53,1.68-3.85,2.65-3.98,2.92-.12.28-.78.72-1.99,1.34-1.2.62-2.49,1.51-3.85,2.67-1.36,1.16-2.14,1.74-2.33,1.74s-1.19.89-3.01,2.67c-1.82,1.78-3.37,3.09-4.66,3.92-1.07.66-1.8,1.36-2.18,2.11-.21.62-.47.93-.81.93-.54,0-2.32,1.55-5.34,4.66-7.24,7.24-11.16,11.39-11.74,12.43-.37.74-.8,1.12-1.27,1.12s-.91.38-1.31,1.15c-.39.76-1.39,2.01-3.01,3.75-2.03,2.2-3.05,3.41-3.05,3.63s-1.05,1.44-3.17,3.64c-2.23,2.36-4.16,4.59-5.77,6.71l-6.34,8.07c-2.23,2.82-3.64,4.76-4.22,5.81-.58,1.06-1.29,1.96-2.11,2.7-.83.75-1.24,1.35-1.24,1.8,0,.25-.13.52-.37.81-.41.54-.81.81-1.18.81-.25,0-.37-.11-.37-.31,0-.29.2-.78.61-1.49.83-1.41,1.72-3.12,2.67-5.15,1.33-2.66,2.35-4.45,3.07-5.41.73-.95,3.1-5.49,7.12-13.61,2.15-3.52,4.06-6.86,5.71-10,1.45-2.77,3.4-6.26,5.85-10.44,1.57-2.94,3.52-6.29,5.84-10.06,5.09-8.21,8.14-13.75,9.13-16.65.62-1.78.93-3.08.93-3.92,0-.99-.4-1.84-1.18-2.54-1.41-1.78-3.32-2.67-5.72-2.67-3.19,0-6.71,1.6-10.56,4.79-2.78,2.32-4.89,4.33-6.34,6.02-1.12,1.24-2.11,2.26-2.98,3.05-1.99,1.82-3.58,3.85-4.78,6.09-.21.5-.31.9-.31,1.18,0,.25.1.5.31.75.7,1,1.43,1.49,2.17,1.49.37,0,.79-.19,1.24-.56.71-.54,1.89-1.49,3.54-2.86.25,0,.4.13.44.37-.91,2.2-2.28,4.91-4.1,8.14-1.33,2.36-2.4,4.41-3.23,6.15-.54,1.12-1.22,2.42-2.06,3.91-3.81,6.79-6.67,12.05-8.57,15.78-2.94,6-4.76,9.52-5.47,10.56-2.03,3.31-6.13,11.51-12.3,24.6-6.34,13.46-9.51,20.6-9.51,21.44,0,.29-1.83,4.17-5.5,11.65-3.66,7.47-5.97,12.57-6.93,15.31-1.61,5.05-3.41,9.29-5.4,12.74-1.58,3.02-2.96,6.04-4.16,9.07-1.41,3.65-2.9,7.29-4.47,10.93-.74,1.58-1.31,2.92-1.68,4.04-.46,1.37-1.14,2.96-2.05,4.79-1.53,3.44-2.96,7.31-4.29,11.62-1.32,4.3-1.99,7.29-1.99,8.94,0,1-.16,1.49-.49,1.49-.54,0-.81.47-.81,1.43,0,.58.18,1.02.53,1.34.35.31.78,1.13,1.27,2.45.5,1.33,1.18,1.99,2.05,1.99.5,0,.89-.31,1.18-.93m-152.3-67.9c-4.72-1.16-8.8-3.41-12.24-6.74-3.44-3.34-5.7-7.22-6.77-11.65-.33-1.62-.5-3.94-.5-6.96,0-5.05.31-10.33.93-15.84.46-4.1,1-6.67,1.62-7.7.2-.37.49-1.41.87-3.1.37-1.7,1.65-5.05,3.85-10.07,2.19-5.01,3.29-7.77,3.29-8.26s.17-.86.5-1.09c.33-.23,1.07-1.23,2.23-3.01,1.16-1.78,1.74-2.81,1.74-3.07s.42-.98,1.27-2.14c.86-1.16,1.28-1.86,1.28-2.09s1.05-1.43,3.17-3.63c.91-.99,1.36-1.6,1.36-1.83s1.35-1.85,4.04-4.88c3.06-3.52,4.69-5.48,4.91-5.9.08-.16.23-.25.43-.25.91,0,2.53,1.29,4.85,3.85,1.16,1.32,2.05,2.61,2.67,3.85.49.78,2.05,2.21,4.66,4.28,2.81,2.28,4.38,3.42,4.69,3.42s.9.49,1.77,1.48c.87,1,1.56,1.49,2.09,1.49s1.64.46,3.39,1.37c2.11,1.16,5.16,2.39,9.16,3.7,3.99,1.3,7.44,2.21,10.34,2.7,1.37.25,3.09.66,5.16,1.24,2.81.74,7.8,1.32,14.97,1.74,1.12.12,1.82.29,2.11.49.62.2,3.6.31,8.94.31s9.08-.08,10.57-.25l3.29-.49c7.95-1.04,12.84-1.72,14.67-2.05.37-.08.7-.13.99-.13.25.04.37.11.37.18,0,.25-.18.62-.56,1.12-.95,1.32-1.75,2.09-2.4,2.3-.64.2-1.06.66-1.27,1.36-.29.62-1.51,2.07-3.66,4.35-2.11,2.11-3.23,3.34-3.36,3.67-.12.33-2.41,2.67-6.86,7.02-4.45,4.35-6.81,6.52-7.08,6.52s-.4.26-.4.78-.17.78-.49.78-1.04.54-2.11,1.61c-1.41,1.29-2.51,2.22-3.29,2.8-1,.7-1.64,1.41-1.93,2.11-.16.54-.37.81-.61.81l-.19-.06c-.33,0-.85.31-1.56.93-.37.33-.81.69-1.3,1.05-2.07,1.58-3.71,2.96-4.91,4.16-1.49,1.41-2.4,2.11-2.71,2.11s-.83.37-1.58,1.12c-.74.75-1.53,1.38-2.36,1.89-.83.52-1.51,1.09-2.05,1.71-.71.71-1.63,1.31-2.79,1.8-1.33.58-2.33,1.23-3.02,1.96-.68.72-1.19,1.09-1.52,1.09s-1.1.49-2.3,1.48c-1.04,1.04-1.76,1.56-2.18,1.56-.2,0-.58.15-1.12.44-2.32,1.36-3.48,2.19-3.48,2.48l.06.13c0,.2-1.2.74-3.6,1.61-1.37.5-2.24.79-2.61.87-.42,0-.62.21-.62.62s-1.17,1.04-3.51,1.87c-2.34.83-3.51,1.39-3.51,1.68s-1.68.91-5.03,1.87c-1.24.29-3.09.89-5.53,1.8-2.28.78-3.92,1.18-4.93,1.18s-1.65.16-1.89.47c-.25.31-3,.47-8.26.47s-8.64-.17-10.13-.5m82.63-72.75c-7.83-.25-12.14-.58-12.93-.99-.29-.25-.99-.42-2.11-.5-.91,0-2.11-.27-3.6-.81-.87-.29-1.49-.43-1.87-.43-.16,0-.25.02-.25.06,0,.04-.02.06-.06.06-.08,0-.25-.12-.49-.37-.46-.37-1.02-.56-1.68-.56-.95-.04-1.99-.25-3.11-.65-1.12-.4-1.96-.86-2.54-1.4-.87-.66-1.65-.99-2.33-.99s-1.2-.37-1.56-1.12c-.35-.75-1.06-1.17-2.14-1.28-1.07-.1-1.61-.3-1.61-.59s-.98-1.16-2.92-2.61c-1.29-.95-2.55-1.97-3.79-3.05-.62-.62-1.08-.93-1.37-.93s-.67-.54-1.15-1.65c-.48-1.1-1.17-1.94-2.05-2.54-.9-.6-1.34-1.07-1.34-1.4s-.74-1.34-2.21-3.01c-1.48-1.68-2.5-3.1-3.08-4.26-.58-1.16-.98-1.81-1.21-1.96-.23-.14-.78-1.1-1.68-2.86-.89-1.76-1.34-2.85-1.34-3.27,0-.08-.42-1.05-1.24-2.92-1.74-3.48-2.71-6.71-2.92-9.69,0-1.12-.17-1.94-.49-2.48-.21-.29-.31-.62-.31-1l.06-.49c0-.54-.14-1.27-.43-2.18-.54-1.53-1.2-6.3-1.99-14.28-.25-2.36-.37-5.51-.37-9.44,0-2.82.08-4.79.25-5.9.33-1.82.54-3.29.62-4.41.2-1.66.76-3.83,1.68-6.52l1.37-4.04c1.32-4.42,2.11-6.64,2.36-6.64s.37-.27.37-.81c0-.37.15-1.04.44-1.99.74-2.4,1.28-3.73,1.61-3.98.33-.25.5-.6.5-1.05,0-.17.47-1.15,1.43-2.92,1.78-3.31,4.01-7.08,6.71-11.31.58-.87,1-1.6,1.24-2.18.12-.29.78-1.14,1.99-2.54,1.12-1.2,1.68-1.98,1.68-2.33s.62-1.36,1.87-3.01c.95-1.07,2.45-2.96,4.47-5.65,1.74-2.19,9.09-9.34,22.05-21.43.54-.41.94-.62,1.21-.62s.76-.45,1.46-1.36c.49-.78,1.07-1.49,1.74-2.11.66-.62,1.14-.96,1.43-1.02.29-.06,1.24-.67,2.83-1.83,1.6-1.16,2.47-1.87,2.64-2.15.16-.27.6-.52,1.3-.74.71-.23,1.4-.64,2.09-1.24.68-.6,2.41-1.68,5.19-3.26,2.77-1.58,4.45-2.59,5.03-3.05.58-.45,2.51-1.39,5.78-2.79,1.12-.5,2.92-1.37,5.41-2.62,2.81-1.45,7.04-2.77,12.67-3.97,2.24-.45,4.85-.69,7.83-.69.7,0,1.15.06,1.34.19.18.12.86.23,2.02.31,4.42.29,7.39.78,8.88,1.49,1,.49,1.82.74,2.46.74s1.58.16,2.82.49c2.9.87,4.85,1.7,5.85,2.49.54.54,1.63,1.18,3.29,1.92,1.66.75,2.49,1.29,2.49,1.62s.2.49.59.49,1.09.33,2.09,1c.78.7,1.46,1.05,2.02,1.05s.83.21.83.62.33.91,1,1.49c.45.37.76.56.93.56.04,0,.06-.02.06-.06.21,0,.62.48,1.24,1.43.83,1.17,1.51,1.87,2.05,2.11.54.25.96.79,1.27,1.62.31.83.64,1.24.97,1.24s.52.23.56.68c.04.46.45,1.16,1.24,2.11.95,1.16,1.9,2.69,2.86,4.59.29.62.58,1.18.87,1.68.54.91,1.14,2.42,1.8,4.53.62,1.95,1.12,3.15,1.49,3.6l.06.25c0,.08-.04.13-.1.13-.06,0-.09.04-.09.12,0,.08.08.28.25.57.25.25.54,1.28.87,3.1.17,1.49.37,2.59.62,3.29.58,1.53.87,8.97.87,22.3,0,5.39-.08,8.26-.25,8.64-.2.12-.45,1.41-.74,3.85-.17,2.28-.37,3.63-.59,4.06-.23.44-.38,1.34-.47,2.71-.08,1.53-.29,2.46-.62,2.79-.29.5-.72,1.95-1.3,4.35-.62,2.62-1.08,4.18-1.37,4.72-.16.37-.25.71-.25,1,0,.13.02.23.06.31.04.08.06.17.06.25,0,.21-.09.38-.28.53-.18.14-.28.34-.28.59,0,.17.02.31.06.44.04.12.06.25.06.37,0,.25-.08.37-.25.37s-.37.29-.62.87c-.66,1.46-.99,2.52-.99,3.2s-.33,1.81-1,3.39c-.78,1.74-1.33,2.61-1.61,2.61-.3,0-.44.33-.44,1,0,1.07-1,3.83-2.98,8.26-1.07,2.23-1.61,3.72-1.61,4.47,0,.2-.16.31-.47.31s-.47.3-.47.93-.33,1.37-1,2.24c-.66.87-.99,1.42-.99,1.65s-.37,1.12-1.09,2.67c-.73,1.55-1.19,2.41-1.4,2.57-.2.17-.49.64-.87,1.43-1.12,2.19-1.68,3.56-1.68,4.1,0,.33-.16.49-.47.49s-.62.28-.93.84c-.31.56-.53,1.18-.65,1.86-.13.69-.3,1.13-.5,1.34-.2.21-.58.71-1.12,1.49-1.29,1.95-2.3,3.67-3.05,5.16-.66,1.24-1.12,1.86-1.36,1.86s-.47.4-.65,1.18c-.19.79-.87,1.97-2.05,3.54-1.18,1.58-1.77,2.61-1.77,3.11s-.11.74-.34.74-.8.66-1.71,1.99c-.78,1.37-1.27,2.05-1.43,2.05s-.59.54-1.27,1.62c-.69,1.07-1.33,1.83-1.93,2.27-.6.43-.9.78-.9,1.05s-.47,1.16-1.43,2.67c-.95,1.51-1.64,2.47-2.05,2.89-.42.41-1.19,1.43-2.33,3.07-1.14,1.63-1.71,2.57-1.71,2.79s-.49.69-1.48,1.4c-1.04.58-1.56,1.12-1.56,1.62s-.37.98-1.09,1.46c-.73.47-1.69.82-2.89,1.02-1.45.17-2.5.42-3.14.75-.64.33-1.46.58-2.45.74l-4.47.75c-1.7.33-3.93.59-6.71.81-2.77.2-4.61.41-5.5.62-.89.2-2.68.31-5.37.31s-5.71-.06-8.94-.19m-66.26,76.97c2.83-.08,5.35-.54,7.55-1.36.78-.33,1.49-.5,2.11-.5.16,0,.31.02.43.06.13.04.23.06.31.06.29,0,.44-.2.44-.62s.1-.62.31-.62l.37.06c1.78,0,5.18-1.14,10.19-3.41,4.01-1.82,6.38-3.03,7.08-3.6.49-.5.99-.75,1.49-.75s1.36-.31,2.61-.93c1.24-.61,2.23-1.28,2.95-1.99.73-.71,1.4-1.05,2.02-1.05s1.28-.35,1.99-1.06c.87-.66,1.43-.99,1.68-.99.66,0,2.16-1.06,4.47-3.17.87-.7,2.53-1.84,4.97-3.41.75-.49,1.72-1.22,2.93-2.18,1.07-.87,1.75-1.3,2.05-1.3s.74-.42,1.36-1.24c.62-.83,1.12-1.24,1.49-1.24s1.14-.58,2.3-1.74c3.6-3.52,5.75-5.28,6.46-5.28.37,0,.64-.33.81-.99.29-.71.71-1.15,1.28-1.31.56-.16,1.32-.78,2.3-1.87.97-1.07,1.58-1.61,1.83-1.61s1.2-.79,2.86-2.36c1.45-1.37,2.38-2.05,2.8-2.05l.12.06c.08,0,.13-.11.13-.31,0-.37,1.99-2.55,5.97-6.52,4.88-5.14,7.76-8.18,8.63-9.13,3.52-3.98,6.17-6.9,7.95-8.76.91-.91,1.37-1.53,1.37-1.87s.35-.81,1.05-1.43c.87-.75,1.49-1.45,1.87-2.11.49-.91,1.7-1.56,3.6-1.93,1.82-.49,2.73-.87,2.73-1.12s.54-.47,1.62-.68c1.07-.21,2.28-.52,3.6-.93,3.23-.95,4.84-1.6,4.84-1.96s1.07-.74,3.23-1.15c.83-.2,1.72-.54,2.67-1.02.95-.47,1.63-.71,2.02-.71s.65-.16.78-.49c.12-.33,1.32-.93,3.6-1.8,2.28-.75,3.56-1.29,3.82-1.62.27-.33,1.27-.95,3.01-1.86,1.58-.75,2.76-1.45,3.54-2.11.71-.45,1.24-.69,1.62-.69.58,0,.87-.14.87-.43s.41-.54,1.24-.75c.99-.33,1.72-.72,2.17-1.18.58-.58,1.36-1.12,2.36-1.61,1.24-.71,2.8-1.68,4.66-2.92,1.99-1.41,3.12-2.11,3.39-2.11s.64-.34,1.12-1.02c.48-.69.91-1.02,1.31-1.02s1.02-.4,1.89-1.18c.58-.5,1.7-1.35,3.36-2.55,1.41-.83,2.11-1.41,2.11-1.77s.18-.53.56-.53c.2,0,.47-.12.81-.37.78-.58,1.18-1.12,1.18-1.62,0-.25.1-.37.31-.37h.18c.75,0,3.4-2.19,7.95-6.58,2.61-2.4,4.04-3.6,4.29-3.6s.37-.18.37-.56-.12-.76-.37-1.15c-.25-.39-.55-.69-.9-.87-.35-.18-.67-.28-.96-.28-.46,0-1.16.41-2.11,1.24-1.16,1.08-1.9,1.62-2.23,1.62s-.5.25-.5.74-.25.75-.77.75-.88.32-1.09.96c-.21.64-.95,1.31-2.24,2.02-1.28.87-1.92,1.43-1.92,1.68s-.69.86-2.09,1.83c-1.39.98-2.54,1.89-3.48,2.76-.93.87-1.54,1.31-1.83,1.31s-.73.33-1.31,1c-.58.66-1.08.99-1.52.99s-.76.17-1,.5c-.23.33-1.12,1.05-2.7,2.17-1.74,1.24-2.72,1.87-2.95,1.87s-.9.45-2.02,1.36c-.83.71-1.84,1.45-3.05,2.24-2.98,1.94-4.8,2.92-5.46,2.92-.49,0-.75.18-.75.52s-.2.53-.61.53-1.06.33-1.93,1c-.66.54-2.58,1.59-5.75,3.17-3.17,1.58-4.88,2.36-5.12,2.36s-.85.31-1.8.93c-.74.66-1.59,1.1-2.54,1.3-.91.29-1.37.57-1.37.84s-.33.4-.99.4c-.46,0-1.68.42-3.67,1.24-1.49.66-3.17,1.29-5.06,1.89-1.89.6-3.12.9-3.7.9-.37,0-.56-.12-.56-.37,0-.33.74-1.31,2.21-2.95,1.47-1.63,2.21-2.62,2.21-2.95s.41-.95,1.24-1.87c.7-.62,1.14-1.18,1.3-1.68,0-.42.33-.91,1-1.49.66-.58,1-1.1,1-1.56s.11-.69.34-.69.69-.56,1.4-1.68c.29-.54,1.01-1.53,2.17-2.98.71-.78,1.06-1.3,1.06-1.56l-.06-.18c0-.37.31-.87.93-1.49.78-.87,1.18-1.53,1.18-1.99s.14-.69.43-.69.83-.72,1.62-2.17c1.57-2.9,2.79-4.72,3.66-5.47.25-.16.37-.35.37-.56s.06-.52.18-.93c.46-1.16.87-1.85,1.24-2.08s1.06-1.4,2.05-3.51c.95-1.94,1.7-3.23,2.24-3.85.54-.62.81-1.14.81-1.55s.41-1.24,1.24-2.46c.83-1.22,1.24-2.04,1.24-2.45s.17-.62.5-.62.49-.41.49-1.24c0-1.33.71-2.84,2.11-4.54.49-.58.94-1.6,1.34-3.05.39-1.45.76-2.26,1.09-2.45.33-.18.49-.6.49-1.24s.25-1.1.74-1.39c.54-.17.81-.58.81-1.24,0-.87.83-3.11,2.48-6.71,1.2-2.65,2.11-4.99,2.74-7.03.45-1.7,1.03-3.48,1.74-5.34.75-2.16,1.16-3.71,1.24-4.67.2-1.36.47-2.54.81-3.54.25-.74.37-1.39.37-1.92,0-.16-.02-.28-.06-.34-.04-.06-.06-.13-.06-.22,0-.29.15-.52.44-.69.41-.37.89-2.05,1.43-5.03,1.2-7,1.8-12.67,1.8-17.02v-1.43c0-.87.07-1.31.22-1.31s.21-.89.21-2.67l-.18-5.9c-.25-8.28-.83-12.81-1.74-13.6-.25-.17-.37-.27-.37-.31,0-.08.13-.13.4-.13s.4-.12.4-.37c0-.12-.04-.29-.12-.49-.25-.83-.42-1.45-.49-1.87-.21-1.07-.62-2.61-1.24-4.59-1.53-4.97-2.71-7.99-3.54-9.07-.46-.66-1.12-1.8-1.99-3.42-.79-1.74-1.41-2.82-1.87-3.26-.46-.44-1-1.19-1.62-2.27-.78-1.2-1.39-1.8-1.8-1.8s-.61-.14-.61-.43l.06-.31c0-.49-1.18-1.89-3.54-4.16-2.48-2.4-4.01-3.6-4.59-3.6-.25,0-.62-.25-1.12-.74-.25-.37-.5-.56-.75-.56h-.18c-.25,0-.75-.42-1.49-1.24-.91-1-1.46-1.49-1.65-1.49s-1.71-.64-4.57-1.93c-2.28-1.07-4.74-2.03-7.39-2.86-2.36-.62-3.83-1.05-4.41-1.3-1.24-.58-2.38-.87-3.41-.87-.83-.13-1.24-.37-1.24-.75s-1.36-.84-4.1-1.4c-2.74-.56-5.92-1.02-9.57-1.39-1.03-.13-1.96-.21-2.79-.25-.83,0-1.36.02-1.62.06-2.32.75-4.72,1.22-7.2,1.43-2.9.33-7.21,1.35-12.92,3.05-5.84,1.58-9.58,2.67-11.22,3.29-1.63.62-3.36,1.47-5.19,2.54l-6.96,3.92c-3.48,1.82-7.64,4.91-12.49,9.25-3.31,2.86-6.42,5.39-9.32,7.58-5.05,3.81-10.58,9.07-16.59,15.78-2.4,2.65-3.6,4.31-3.6,4.97,0,.29-.29.77-.87,1.43-.75.75-1.82,2.24-3.23,4.47-2.11,2.9-3.53,5.08-4.23,6.52-.54,1.24-1.21,2.37-2.02,3.39-.81,1.02-1.21,1.83-1.21,2.45s-.31,1.1-.93,1.43c-.62.33-.93.71-.93,1.12l.13.49c0,.16-.06.25-.19.25h-.12c-.46,0-1.06.98-1.8,2.92-.87,2.03-1.53,3.32-1.99,3.85-.46.54-.69,1-.69,1.36,0,.54-.35,1.24-1.05,2.11-.5.71-.75,1.18-.75,1.43,0,.04.04.06.09.06.06,0,.09.04.09.13,0,.04-.09.2-.28.47-.18.27-.55,1.23-1.09,2.88-.33,1.41-.74,2.81-1.24,4.2-.49,1.39-.85,2.86-1.05,4.44-.2,1.58-.55,2.85-1.02,3.82-.48.97-.71,1.83-.71,2.57s-.19,1.46-.56,2.11c-.62,1.08-1.08,4.08-1.37,9.01-.21,2.86-.31,5.75-.31,8.69,0,10.23.85,19.26,2.55,27.09,1.57,7.12,2.65,11.39,3.23,12.8.12.33.18.62.18.87,0,.41-.18.62-.56.62-.29,0-.64-.18-1.05-.53-.42-.35-.71-.53-.87-.53-.21,0-.52.31-.93.93-.46.83-1.06,1.34-1.8,1.56-.78.33-2.05,1.27-3.79,2.79-1.74,1.53-3.39,3.14-4.94,4.81-1.56,1.68-2.33,2.75-2.33,3.2,0,.66-.17,1-.52,1s-1.19,1.03-2.52,3.1c-3.69,5.14-5.53,7.82-5.53,8.04s-.57,1.25-1.68,3.07c-1.65,2.57-3.79,6.98-6.4,13.23-.2.5-.37.81-.49.93-.46.71-1.72,4.74-3.79,12.11-.46,1.53-.69,2.94-.69,4.23-.13,1.61-.4,3.62-.81,6.02-.46,2.9-.69,6.5-.69,10.81,0,3.39.18,6.25.56,8.57.49,2.77,1.49,5.63,2.98,8.57,1.49,2.94,3.15,5.36,4.97,7.27.91.87,1.92,1.76,3.05,2.67,2.73,2.23,4.35,3.35,4.84,3.35.13,0,1.04.5,2.74,1.49,1.7,1,2.78,1.49,3.26,1.49s.71.18.71.53.24.53.72.53.92.2,1.33.61c1.17.95,3.82,1.66,7.95,2.11,3.03.33,6.14.5,9.32.5,1.16,0,3.16-.04,5.99-.13"/><path class="cls-7" d="m1185.51,340.29c-6.36,4.07-13.36,5.73-20.87,5.73-20.48,0-35.37-14.63-35.37-34.22s14.89-34.22,35.5-34.22c10.05,0,18.45,3.18,25.83,10.31l7.89-7.89c-8.14-9.03-20.1-13.74-34.22-13.74-27.61,0-47.71,19.21-47.71,45.55s20.1,45.55,47.46,45.55c12.47,0,24.81-3.82,33.72-11.32v-34.73h-12.21v29.01Zm-126.59-73.03v66.41l-53.44-66.41h-10.43v89.06h12.72v-66.41l53.44,66.41h10.43v-89.06h-12.72Zm-128.75,89.06h12.72v-89.06h-12.72v89.06Zm-49.49-89.06l-32.32,73.16-32.06-73.16h-13.74l39.19,89.06h12.6l39.06-89.06h-12.72Zm-128.63,89.06h12.72v-89.06h-12.72v89.06Zm-101.02,0h60.94v-11.07h-48.22v-77.99h-12.72v89.06Z"/></g><rect class="cls-7" width="144.35" height="122.34"/><rect class="cls-9" x="156.59" y="32.81" width="144.35" height="122.34"/><g class="cls-3"><rect class="cls-10" y="133.13" width="144.35" height="122.34"/></g><rect class="cls-6" x="157.81" y="167.38" width="144.35" height="122.34"/><g class="cls-2"><path class="cls-5" d="m118.6,214.22c-9.55-6.88-16.95-16.6-22.19-29.16-5.25-12.56-7.87-27.45-7.87-44.65s2.62-32.09,7.87-44.66c5.24-12.55,12.65-22.28,22.19-29.16,9.55-6.88,20.77-10.32,33.68-10.32s24.13,3.44,33.68,10.32c9.55,6.88,16.95,16.61,22.19,29.16,5.25,12.57,7.87,27.45,7.87,44.66s-2.62,32.09-7.87,44.65c-5.24,12.56-12.65,22.28-22.19,29.16-9.55,6.88-20.77,10.32-33.68,10.32s-24.13-3.44-33.68-10.32m-18.46-156.28c-14.8,7.65-26.24,18.54-34.32,32.65-8.09,14.11-12.14,30.71-12.14,49.82s4.04,35.7,12.14,49.81c8.08,14.11,19.52,24.99,34.32,32.65,14.79,7.65,32.17,11.49,52.14,11.49s37.12-3.83,52.01-11.49c14.88-7.65,26.36-18.54,34.45-32.65,8.09-14.11,12.14-30.71,12.14-49.81s-4.05-35.71-12.14-49.82c-8.09-14.11-19.57-24.99-34.45-32.65-14.89-7.65-32.22-11.49-52.01-11.49s-37.34,3.83-52.14,11.49"/></g></svg>